HIERARCHY
ROOT Joint1
{
	OFFSET 0.000000 0.000000 0.000000
	CHANNELS 6 Xposition Yposition Zposition Xrotation Yrotation Zrotation
	JOINT Joint2
	{
		OFFSET -0.000000 0.000000 1.456275
		CHANNELS 6 Xposition Yposition Zposition Xrotation Yrotation Zrotation
		JOINT Joint3
		{
			OFFSET -0.000000 0.000002 1.471446
			CHANNELS 6 Xposition Yposition Zposition Xrotation Yrotation Zrotation
			JOINT Joint4
			{
				OFFSET 0.625745 0.000000 0.917755
				CHANNELS 6 Xposition Yposition Zposition Xrotation Yrotation Zrotation
				JOINT Joint5
				{
					OFFSET -0.629534 0.000001 0.940221
					CHANNELS 6 Xposition Yposition Zposition Xrotation Yrotation Zrotation
					JOINT Joint6
					{
						OFFSET -0.000001 0.113772 1.960660
						CHANNELS 6 Xposition Yposition Zposition Xrotation Yrotation Zrotation
						JOINT Joint7
						{
							OFFSET -0.669733 -0.113771 0.388340
							CHANNELS 6 Xposition Yposition Zposition Xrotation Yrotation Zrotation
							End Site
							{
								OFFSET 0.005509 0.005509 0.438980
							}
						}
					}
				}
			}
		}
	}
}
MOTION
Frames: 22
Frame Time: 0.041667
0.000000 0.000000 0.000000 -0.000000 1.019410 -84.939645 -0.000000 0.000000 1.456275 -0.000000 -28.327672 -0.000000 -0.000000 0.000002 1.471445 -0.000002 -1.133454 52.841151 0.625745 0.000001 0.917755 0.000003 118.571046 -0.000001 -0.629534 0.000001 0.940221 -0.000001 1.709734 -72.598210 -0.000001 0.113772 1.960660 -88.303882 74.093107 -0.000007 -0.669733 -0.113771 0.388340 -1.371454 3.318769 175.848370 
0.000000 0.000000 0.000000 -0.000000 1.019410 -87.595018 -0.000000 -0.000000 1.456275 0.000000 -27.806957 0.000000 -0.000000 0.000002 1.471446 -0.000002 -1.133457 54.493978 0.625744 0.000000 0.917755 -0.000001 118.056869 -0.000000 -0.629534 0.000001 0.940221 -0.000004 1.709735 -74.867452 -0.000001 0.113772 1.960660 -88.303882 73.596518 -0.000003 -0.669733 -0.113771 0.388340 -1.388460 3.303757 177.126094 
0.000000 0.000000 0.000000 -0.000000 1.019410 -90.248191 -0.000000 0.000000 1.456275 -0.000000 -27.286672 0.000000 -0.000000 0.000002 1.471446 -0.000003 -1.133457 56.145432 0.625745 0.000001 0.917755 0.000008 117.543102 0.000001 -0.629534 0.000001 0.940221 -0.000002 1.709735 -77.134815 -0.000001 0.113772 1.960660 -88.303889 73.100345 0.000002 -0.669733 -0.113771 0.388341 -1.405107 3.288385 178.402738 
0.000000 0.000000 0.000000 -0.000000 1.019410 -92.385829 -0.000000 -0.000000 1.456275 0.000000 -26.867487 -0.000000 -0.000000 0.000002 1.471446 -0.000003 -1.133453 57.476001 0.625745 0.000001 0.917755 -0.000001 117.129193 -0.000006 -0.629534 0.000001 0.940221 -0.000004 1.709735 -78.961611 -0.000001 0.113772 1.960660 -88.303889 72.700588 0.000005 -0.669733 -0.113771 0.388340 -1.418270 3.275734 179.431296 
0.000000 0.000000 0.000000 -0.000000 1.019410 -94.081785 -0.000000 0.000000 1.456275 -0.000000 -26.534909 -0.000000 -0.000001 0.000002 1.471445 -0.000003 -1.133456 58.531641 0.625745 0.000001 0.917755 0.000000 116.800770 -0.000000 -0.629533 0.000001 0.940221 0.000001 1.709733 -80.410943 -0.000001 0.113772 1.960660 -88.303896 72.383422 -0.000004 -0.669733 -0.113771 0.388341 -1.428546 3.265529 180.247326 
0.000000 0.000000 0.000000 -0.000000 1.019410 -95.556744 -0.000000 -0.000000 1.456275 0.000001 -26.245673 0.000000 -0.000000 0.000002 1.471446 -0.000003 -1.133456 59.449721 0.625745 0.000000 0.917755 -0.000005 116.515173 -0.000005 -0.629534 0.000001 0.940221 -0.000001 1.709734 -81.671427 -0.000001 0.113772 1.960660 -88.303909 72.107591 0.000003 -0.669733 -0.113771 0.388340 -1.437367 3.256536 180.956996 
0.000000 0.000000 0.000000 -0.000000 1.019410 -97.031471 -0.000000 -0.000000 1.456275 0.000000 -25.956478 0.000000 -0.000000 0.000002 1.471446 -0.000002 -1.133457 60.367664 0.625745 0.000000 0.917755 -0.000002 116.229602 -0.000007 -0.629534 0.000001 0.940221 -0.000003 1.709736 -82.931713 -0.000001 0.113772 1.960660 -88.303903 71.831802 0.000001 -0.669734 -0.113771 0.388340 -1.446077 3.247435 181.666558 
0.000000 0.000000 0.000000 -0.000000 1.019410 -98.727208 -0.000000 -0.000000 1.456275 -0.000000 -25.623948 0.000001 -0.000000 0.000002 1.471445 -0.000003 -1.133457 61.423167 0.625745 0.000001 0.917755 0.000002 115.901234 -0.000004 -0.629534 0.000001 0.940221 -0.000002 1.709735 -84.380861 -0.000001 0.113772 1.960661 -88.303889 71.514676 0.000002 -0.669733 -0.113771 0.388340 -1.455947 3.236842 182.482437 
0.000000 0.000000 0.000000 -0.000000 1.019410 -100.865297 -0.000000 0.000000 1.456275 -0.000001 -25.204674 0.000000 -0.000001 0.000002 1.471446 -0.000003 -1.133454 62.754009 0.625745 0.000001 0.917755 0.000005 115.487229 -0.000003 -0.629533 0.000001 0.940222 -0.000005 1.709735 -86.208032 -0.000001 0.113772 1.960661 -88.303889 71.114837 -0.000019 -0.669733 -0.113771 0.388340 -1.468175 3.223283 183.511159 
0.000000 0.000000 0.000000 -0.000000 1.019410 -103.519576 -0.000000 0.000000 1.456275 0.000000 -24.684172 0.000000 -0.000000 0.000002 1.471446 -0.000003 -1.133455 64.406157 0.625745 0.000001 0.917755 0.000007 114.973257 0.000001 -0.629534 0.000001 0.940221 -0.000005 1.709734 -88.476338 -0.000001 0.113772 1.960661 -88.303896 70.618453 -0.000003 -0.669733 -0.113771 0.388339 -1.483007 3.206150 184.788200 
0.000000 0.000000 0.000000 -0.000000 1.019410 -106.173849 -0.000000 0.000000 1.456275 -0.000001 -24.163676 0.000001 -0.000000 0.000002 1.471445 -0.000004 -1.133456 66.058291 0.625745 0.000000 0.917755 -0.000002 114.459279 -0.000002 -0.629533 0.000001 0.940221 -0.000004 1.709736 -90.744630 -0.000001 0.113773 1.960661 -88.303882 70.122076 -0.000003 -0.669733 -0.113771 0.388339 -1.497460 3.188693 186.065199 
0.000000 0.000000 0.000000 -0.000000 1.019410 -108.311924 -0.000000 -0.000000 1.456275 -0.000000 -23.744398 0.000002 -0.000001 0.000002 1.471446 -0.000002 -1.133455 67.389133 0.625744 0.000001 0.917755 -0.000005 114.045267 -0.000004 -0.629533 0.000001 0.940221 0.000001 1.709737 -92.571808 -0.000001 0.113772 1.960660 -88.303889 69.722230 -0.000010 -0.669733 -0.113771 0.388341 -1.508819 3.174399 187.093853 
0.000000 0.000000 0.000000 -0.000000 1.019410 -110.007662 -0.000000 0.000000 1.456275 -0.000000 -23.411868 -0.000001 -0.000000 0.000002 1.471446 -0.000003 -1.133454 68.444643 0.625745 0.000000 0.917755 0.000004 113.716905 -0.000003 -0.629534 0.000001 0.940221 -0.000002 1.709735 -94.020962 -0.000001 0.113772 1.960660 -88.303896 69.405104 -0.000005 -0.669733 -0.113771 0.388340 -1.517637 3.162920 187.909665 
0.000000 0.000000 0.000000 -0.000000 1.019410 -111.482395 -0.000000 0.000000 1.456275 0.000001 -23.122673 0.000001 -0.000000 0.000002 1.471446 -0.000004 -1.133456 69.362586 0.625745 0.000001 0.917755 -0.000006 113.431335 -0.000007 -0.629533 0.000001 0.940221 -0.000001 1.709735 -95.281248 -0.000001 0.113772 1.960661 -88.303896 69.129314 -0.000010 -0.669733 -0.113771 0.388340 -1.525179 3.152835 188.619157 
0.000000 0.000000 0.000000 -0.000000 1.019410 -112.957361 -0.000000 -0.000000 1.456275 0.000001 -22.833435 -0.000001 -0.000000 0.000002 1.471446 -0.000002 -1.133455 70.280666 0.625745 0.000000 0.917755 -0.000001 113.145724 -0.000006 -0.629534 0.000001 0.940221 -0.000008 1.709736 -96.541725 -0.000001 0.113772 1.960660 -88.303903 68.853477 0.000002 -0.669733 -0.113771 0.388340 -1.532588 3.142658 189.328759 
0.000000 0.000000 0.000000 -0.000000 1.019410 -114.653331 -0.000000 -0.000000 1.456275 0.000000 -22.500860 0.000001 -0.000000 0.000002 1.471446 -0.000002 -1.133455 71.336313 0.625745 0.000001 0.917755 0.000000 112.817329 -0.000009 -0.629533 0.000001 0.940221 -0.000004 1.709733 -97.991078 -0.000001 0.113772 1.960661 -88.303903 68.536317 -0.000013 -0.669733 -0.113771 0.388340 -1.540959 3.130838 190.144653 
0.000000 0.000000 0.000000 -0.000000 1.019410 -116.790948 -0.000000 0.000000 1.456275 0.000000 -22.081674 0.000001 -0.000001 0.000002 1.471445 -0.000003 -1.133457 72.666861 0.625745 0.000001 0.917755 -0.000005 112.403405 -0.000008 -0.629533 0.000001 0.940221 0.000000 1.709734 -99.817853 -0.000001 0.113772 1.960660 -88.303896 68.136560 -0.000008 -0.669733 -0.113771 0.388339 -1.551259 3.115778 191.173006 
0.000000 0.000000 0.000000 -0.000000 1.019410 -119.444081 -0.000000 0.000000 1.456275 0.000000 -21.561399 0.000003 -0.000000 0.000002 1.471445 -0.000004 -1.133456 74.318291 0.625745 0.000000 0.917755 0.000005 111.889666 -0.000013 -0.629534 0.000001 0.940221 -0.000002 1.709733 -102.085175 -0.000000 0.113772 1.960661 -88.303889 67.640388 -0.000013 -0.669733 -0.113771 0.388340 -1.563674 3.096831 192.449323 
0.000000 0.000000 0.000000 -0.000000 1.019410 -122.099494 -0.000000 0.000000 1.456275 -0.000000 -21.040678 0.000000 -0.000000 0.000002 1.471445 -0.000004 -1.133452 75.971149 0.625745 0.000001 0.917755 -0.000002 111.375462 -0.000005 -0.629533 0.000001 0.940221 -0.000004 1.709734 -104.354451 -0.000001 0.113772 1.960660 -88.303889 67.143806 0.000003 -0.669733 -0.113771 0.388340 -1.575668 3.077598 193.726732 
0.000000 0.000000 0.000000 -0.000000 1.019410 -124.242726 -0.000000 0.000000 1.456275 0.000001 -20.620394 -0.000001 -0.000001 0.000002 1.471446 -0.000006 -1.133453 77.305188 0.625745 0.000000 0.917755 0.000003 110.960446 -0.000007 -0.629533 0.000001 0.940221 0.000000 1.709736 -106.186021 -0.000001 0.113772 1.960660 -88.303889 66.742990 0.000001 -0.669733 -0.113771 0.388340 -1.585035 3.061885 194.757735 
0.000000 0.000000 0.000000 -0.000000 1.019410 -125.941243 -0.000000 -0.000000 1.456275 0.000001 -20.287315 0.000004 -0.000000 0.000002 1.471446 -0.000005 -1.133456 78.362426 0.625745 0.000001 0.917755 0.000009 110.631552 -0.000001 -0.629533 0.000001 0.940221 0.000001 1.709734 -107.637552 -0.000001 0.113773 1.960660 -88.303896 66.425345 0.000001 -0.669733 -0.113771 0.388340 -1.592254 3.049307 195.574790 
0.000000 0.000000 0.000000 -0.000000 1.019410 -127.408054 -0.000000 0.000000 1.456275 -0.000000 -19.999678 0.000000 -0.000000 0.000002 1.471446 -0.000005 -1.133452 79.275438 0.625745 0.000001 0.917755 0.000002 110.347519 -0.000002 -0.629533 0.000001 0.940221 0.000000 1.709735 -108.891063 -0.000001 0.113772 1.960661 -88.303896 66.151038 0.000003 -0.669733 -0.113771 0.388340 -1.598344 3.038370 196.280362 
